<svg xmlns="http://www.w3.org/2000/svg" viewBox="0 0 1000 1000" id="samosa">
  <path d="M516.14,842.37c-5.36,0-10.73,0-16.14-.12-65.74,1-128.07-4-185.25-14.92-46-8.77-88.88-21.34-127.35-37.36C120.94,762.28,90.29,733.74,89,732.54a16,16,0,0,1,3.45-25.75A435.34,435.34,0,0,0,187.83,638c33.58-32,60.76-71.48,80.8-117.41,26.87-61.57,69.8-121.74,93-152.13a298.9,298.9,0,0,0,32.59-53.52c27.25-57.57,49.89-99.75,67.28-125.35,14.08-20.73,23.92-29.89,34-31.64a41.17,41.17,0,0,1,9.06,0c9.91,1.71,19.57,10.6,33.35,30.72,16.9,24.67,38.86,65.29,65.27,120.71A371.45,371.45,0,0,0,641.85,373c27.22,36.09,64.84,91,89.52,147.54,20,45.93,47.22,85.43,80.8,117.41a435.34,435.34,0,0,0,95.36,68.82A16,16,0,0,1,911,732.54c-1.27,1.2-31.92,29.74-98.38,57.43-38.47,16-81.32,28.59-127.35,37.36C632.77,837.32,576,842.37,516.14,842.37ZM500,810.24h.24c142.68,2.18,240.85-25.45,298.08-49,34.08-14,58.06-28.3,72.78-38.34a467.3,467.3,0,0,1-81-61.76C753.42,626.2,723.79,583.21,702,533.36c-24.67-56.53-64.31-112.65-85.74-141.07a403.29,403.29,0,0,1-42-69.18c-45.06-94.58-66.38-123-74.25-131.32-8,8.47-30,37.83-76.86,136.81a331.1,331.1,0,0,1-36.07,59.25c-22.33,29.24-63.59,87-89.11,145.51-21.75,49.86-51.38,92.85-88.06,127.78a467.3,467.3,0,0,1-81,61.76c14.71,10,38.7,24.32,72.78,38.34,55.09,22.68,148.14,49.12,282.31,49.13q7.8,0,15.77-.12Zm11.28-624.93a15.46,15.46,0,0,1-1.81,1.55A15.87,15.87,0,0,0,511.28,185.31Zm-22.59,0a14.67,14.67,0,0,0,1.83,1.57A15.83,15.83,0,0,1,488.69,185.28Zm22.62,0,0,0Z"></path>
  <path d="M694.6,775.45h-.24a16,16,0,0,1-15.76-16.23c.55-37.18-9.5-91-29.07-155.67A649.22,649.22,0,0,0,587,461.13C497.4,309.68,475.15,187.13,474.25,182a16,16,0,0,1,31.52-5.54c.26,1.46,22.44,122.46,108.75,268.38a681.67,681.67,0,0,1,65.64,149.46c20.8,68.74,31,124.39,30.43,165.4A16,16,0,0,1,694.6,775.45Z"></path>
  <path d="M493,787.7c-54.7,0-109.23-2.68-163-8-144-14.29-231.35-42.37-235-43.56a16,16,0,0,1,9.9-30.43h0c.87.28,88.51,28.37,229.3,42.25,129.77,12.8,332.57,15.81,561.8-42.54a16,16,0,1,1,7.9,31,1666.18,1666.18,0,0,1-317.47,48.68Q539.8,787.7,493,787.7Z"></path>
</svg>
