<svg xmlns="http://www.w3.org/2000/svg" xmlns:xlink="http://www.w3.org/1999/xlink" width="1080" zoomAndPan="magnify" viewBox="0 0 810 809.999993" height="1080" preserveAspectRatio="xMidYMid meet" version="1.0"><defs><clipPath id="7867abc2d7"><path d="M 39.085938 81 L 566 81 L 566 548.25 L 39.085938 548.25 Z M 39.085938 81 " clip-rule="nonzero"/></clipPath><clipPath id="9d4700631d"><path d="M 39.085938 81 L 454 81 L 454 548.25 L 39.085938 548.25 Z M 39.085938 81 " clip-rule="nonzero"/></clipPath></defs><rect x="-81" width="972" fill="#ffffff" y="-80.999999" height="971.999992" fill-opacity="1"/><rect x="-81" width="972" fill="#ffffff" y="-80.999999" height="971.999992" fill-opacity="1"/><path fill="#da8333" d="M 306.792969 305.320312 L 306.914062 305.503906 L 307.144531 305.882812 L 307.355469 306.269531 L 307.550781 306.664062 L 307.726562 307.066406 L 307.886719 307.476562 L 308.027344 307.894531 L 308.148438 308.320312 L 308.253906 308.746094 L 308.339844 309.179688 L 308.40625 309.613281 L 308.457031 310.050781 L 308.484375 310.492188 L 308.496094 310.929688 L 308.484375 311.371094 L 308.457031 311.8125 L 308.40625 312.25 L 308.339844 312.683594 L 308.253906 313.117188 L 308.148438 313.546875 L 308.027344 313.96875 L 307.886719 314.386719 L 307.726562 314.796875 L 307.550781 315.199219 L 307.355469 315.59375 L 307.144531 315.980469 L 306.914062 316.359375 L 306.671875 316.722656 L 306.410156 317.082031 L 306.136719 317.421875 L 305.84375 317.753906 L 305.542969 318.074219 L 305.222656 318.378906 L 304.890625 318.667969 L 304.546875 318.945312 L 304.191406 319.203125 L 303.828125 319.449219 L 303.453125 319.679688 L 303.066406 319.890625 L 302.671875 320.085938 L 302.269531 320.261719 L 301.859375 320.421875 L 301.441406 320.5625 L 301.019531 320.6875 L 300.589844 320.792969 L 300.160156 320.878906 L 299.722656 320.945312 L 299.285156 320.992188 L 298.847656 321.023438 L 298.40625 321.035156 L 297.964844 321.023438 L 297.527344 320.992188 L 297.089844 320.945312 L 296.65625 320.878906 L 296.222656 320.792969 L 295.796875 320.6875 L 295.375 320.5625 L 294.957031 320.421875 L 294.546875 320.261719 L 294.144531 320.085938 L 293.75 319.890625 L 293.363281 319.679688 L 293.484375 319.859375 L 293.746094 320.21875 L 294.023438 320.5625 L 294.3125 320.890625 L 294.617188 321.210938 L 294.933594 321.515625 L 295.265625 321.804688 L 295.605469 322.082031 L 295.960938 322.34375 L 296.328125 322.585938 L 296.707031 322.816406 L 297.089844 323.027344 L 297.484375 323.222656 L 297.890625 323.398438 L 298.300781 323.558594 L 298.714844 323.699219 L 299.136719 323.824219 L 299.566406 323.929688 L 299.996094 324.015625 L 300.433594 324.082031 L 300.871094 324.128906 L 301.308594 324.160156 L 301.75 324.171875 L 302.1875 324.160156 L 302.628906 324.128906 L 303.066406 324.082031 L 303.5 324.015625 L 303.933594 323.929688 L 304.359375 323.824219 L 304.78125 323.699219 L 305.199219 323.558594 L 305.609375 323.398438 L 306.011719 323.222656 L 306.40625 323.027344 L 306.792969 322.816406 L 307.167969 322.585938 L 307.535156 322.34375 L 307.890625 322.082031 L 308.234375 321.804688 L 308.566406 321.515625 L 308.882812 321.210938 L 309.1875 320.890625 L 309.476562 320.5625 L 309.753906 320.21875 L 310.011719 319.859375 L 310.257812 319.496094 L 310.484375 319.117188 L 310.695312 318.730469 L 310.890625 318.335938 L 311.070312 317.933594 L 311.226562 317.523438 L 311.371094 317.105469 L 311.492188 316.683594 L 311.597656 316.253906 L 311.683594 315.820312 L 311.75 315.386719 L 311.796875 314.949219 L 311.828125 314.507812 L 311.839844 314.070312 L 311.828125 313.628906 L 311.796875 313.1875 L 311.75 312.75 L 311.683594 312.316406 L 311.597656 311.882812 L 311.492188 311.457031 L 311.371094 311.03125 L 311.226562 310.613281 L 311.070312 310.203125 L 310.890625 309.800781 L 310.695312 309.40625 L 310.484375 309.019531 L 310.257812 308.640625 L 310.011719 308.277344 L 309.753906 307.921875 L 309.476562 307.578125 L 309.1875 307.246094 L 308.882812 306.929688 L 308.566406 306.621094 L 308.234375 306.332031 L 307.890625 306.054688 L 307.535156 305.796875 L 307.167969 305.550781 Z M 306.792969 305.320312 " fill-opacity="1" fill-rule="nonzero"/><path fill="#f9be64" d="M 182.90625 529.746094 L 158.632812 527.800781 L 145.933594 525.273438 L 126.398438 518.527344 L 102.566406 506.367188 L 81.0625 491.773438 L 54.171875 471.050781 L 41.703125 461.976562 L 70.183594 432.328125 L 89.78125 410.890625 L 108.792969 388.945312 L 120.679688 374.480469 L 138.347656 351.628906 L 148.125 338.109375 L 159.535156 321.363281 L 170.808594 303.542969 L 178.738281 290.0625 L 187.941406 273.238281 L 195.433594 261.164062 L 207.890625 244.867188 L 227.007812 221.820312 L 244.40625 196.804688 L 253.101562 179.085938 L 259.757812 152.210938 L 267.871094 127.113281 L 274.097656 113.066406 L 286.183594 93.953125 L 295.769531 83.558594 L 300.476562 89.34375 L 310.777344 103.800781 L 319.480469 118.164062 L 329.988281 138.246094 L 337.8125 154.882812 L 351.464844 185.296875 L 363.867188 210.902344 L 379.503906 236.617188 L 394.53125 248.707031 L 405.585938 260.058594 L 415.570312 274.410156 L 424.039062 291.269531 L 427.652344 299.9375 L 435.394531 312.75 L 442.476562 324.476562 L 450.902344 338.417969 L 459.386719 352.460938 L 465.0625 361.847656 L 472.382812 373.96875 L 479.910156 386.421875 L 491.535156 405.664062 L 502.472656 423.757812 L 534.191406 449.101562 L 563.496094 475.902344 L 556.804688 491.632812 L 547.8125 503.691406 L 537.121094 512.953125 L 519.164062 522.84375 L 493.695312 531.058594 L 456.367188 537.96875 L 407.285156 545.933594 L 369.84375 541.71875 L 301.75 539.003906 L 265.617188 538.707031 L 241.273438 536.859375 L 213.078125 533.007812 Z M 182.90625 529.746094 " fill-opacity="1" fill-rule="nonzero"/><path fill="#da8333" d="M 295.769531 83.558594 C 295.769531 83.558594 306.617188 122.457031 315.347656 140.546875 C 320.898438 152.050781 331.777344 160.785156 335.972656 172.851562 C 339.234375 182.234375 335.304688 193.265625 338.976562 202.492188 C 344.398438 216.117188 359.648438 224.046875 365.832031 237.34375 C 373.261719 253.324219 367.839844 273.984375 377.050781 289.015625 C 386.425781 304.304688 407.496094 309.074219 418.734375 323.054688 C 433.359375 341.25 444.914062 362.84375 450.328125 385.550781 C 453.363281 398.277344 445.917969 412.484375 450.328125 424.804688 C 454.171875 435.539062 469.367188 440.15625 472.039062 451.242188 C 475.460938 465.429688 468.3125 480.546875 462.714844 494.027344 C 455.425781 511.578125 431.824219 541.949219 431.824219 541.949219 C 431.824219 541.949219 454.183594 538.5625 465.316406 536.585938 C 474.804688 534.902344 484.363281 533.464844 493.695312 531.058594 C 502.332031 528.832031 510.972656 526.378906 519.164062 522.84375 C 525.4375 520.132812 531.515625 516.859375 537.121094 512.953125 C 540.988281 510.257812 544.601562 507.144531 547.8125 503.691406 C 551.226562 500.015625 554.304688 495.976562 556.804688 491.628906 C 559.640625 486.691406 566.992188 480.402344 563.496094 475.902344 C 559.835938 471.1875 546.042969 460.984375 537.292969 451.773438 C 528.984375 443.023438 518.203125 436.984375 509.105469 429.058594 C 506.359375 426.667969 503.4375 424.402344 501.148438 421.570312 C 498.117188 417.820312 496.164062 413.320312 493.671875 409.195312 C 489.082031 401.601562 484.496094 394.011719 479.910156 386.421875 C 474.015625 376.664062 468.121094 366.910156 462.222656 357.152344 C 450.699219 338.082031 438.070312 319.636719 427.652344 299.9375 C 423.898438 292.84375 421.617188 285.015625 417.628906 278.054688 C 413.320312 270.527344 408.449219 263.238281 402.710938 256.734375 C 398.4375 251.886719 393.417969 247.71875 388.335938 243.722656 C 386.046875 241.921875 383.136719 240.898438 381.105469 238.808594 C 375.195312 232.734375 371.570312 224.777344 367.394531 217.402344 C 361.507812 207.003906 356.585938 196.089844 351.464844 185.296875 C 345.386719 172.488281 339.980469 159.371094 333.898438 146.566406 C 330.257812 138.898438 326.59375 131.234375 322.570312 123.761719 C 320.230469 119.421875 317.707031 115.183594 315.128906 110.984375 C 312.710938 107.046875 310.246094 103.136719 307.605469 99.347656 C 303.84375 93.953125 295.769531 83.558594 295.769531 83.558594 Z M 295.769531 83.558594 " fill-opacity="1" fill-rule="nonzero"/><path fill="#f9f9f9" d="M 64.117188 438.773438 C 64.117188 438.773438 110.140625 410.03125 129.765625 391.558594 C 152.089844 370.539062 174.914062 348.039062 187.878906 320.257812 C 204.441406 284.773438 233.914062 252.851562 250.730469 215.886719 C 262.972656 188.980469 272.753906 160.582031 277.9375 131.480469 C 280.902344 114.824219 295.71875 83.695312 295.71875 83.695312 L 283.050781 98.132812 L 270.984375 120.089844 L 264.585938 136.21875 L 259.757812 152.210938 L 254.910156 171.792969 L 253.101562 179.085938 L 244.40625 196.804688 L 232.761719 214.355469 L 217.449219 233.34375 L 195.433594 261.164062 L 187.941406 273.238281 L 178.738281 290.0625 L 159.535156 321.363281 L 143.238281 344.867188 L 132.390625 359.535156 L 108.792969 388.945312 Z M 64.117188 438.773438 " fill-opacity="0.471" fill-rule="nonzero"/><g clip-path="url(#7867abc2d7)"><path stroke-linecap="round" transform="matrix(2.423642, 0, 0, 2.422239, -61.012633, -48.657618)" fill="none" stroke-linejoin="round" d="M 42.380751 210.810781 C 65.199588 187.575567 86.89344 162.940564 102.366023 133.549825 C 109.494694 120.005089 122.805951 110.8226 129.604217 94.021902 C 133.080713 79.112855 136.721606 64.323145 147.209116 54.584287 C 163.564927 73.857194 169.18502 100.911188 182.418914 118.677869 C 193.270675 125.439755 197.873769 134.519034 201.624259 143.914395 L 232.493675 195.03251 C 241.356564 201.646031 249.755276 208.814307 257.673693 216.559916 C 250.227512 241.822244 217.955893 240.245062 193.220712 245.471695 C 173.494779 242.457632 151.293234 242.604384 129.604217 242.457632 C 111.085469 239.61935 101.407045 238.740449 89.193375 237.884127 C 67.568827 233.165482 56.036917 220.21743 42.380751 210.810781 Z M 42.380751 210.810781 " stroke="#000000" stroke-width="2" stroke-opacity="1" stroke-miterlimit="4"/></g><g clip-path="url(#9d4700631d)"><path stroke-linecap="butt" transform="matrix(2.423642, 0, 0, 2.422239, -61.012633, -48.657618)" fill="none" stroke-linejoin="miter" d="M 51.628843 201.231577 C 67.230365 212.704044 74.918305 228.042059 110.840486 229.590213 C 129.14004 230.532007 146.172776 232.107577 163.461776 233.555746 L 186.461127 235.898942 C 200.487991 233.902468 208.583698 229.691811 190.90466 204.947147 C 190.798285 187.593307 191.027151 170.35719 174.016979 147.118751 C 168.21476 124.991436 162.568879 102.793163 147.408971 84.828124 C 145.223468 74.839304 143.376428 64.835971 147.209116 54.584287 " stroke="#000000" stroke-width="2" stroke-opacity="1" stroke-miterlimit="4"/></g><path fill="#000000" d="M 498.953125 501.222656 C 488.679688 505.039062 478.828125 507.167969 470.425781 508.527344 C 462.359375 509.832031 456.871094 510.308594 456.871094 510.308594 C 456.871094 510.308594 462.328125 511.050781 470.632812 510.945312 C 479.121094 510.835938 489.878906 509.730469 500.636719 505.765625 C 519.441406 498.808594 536.621094 485.734375 550.28125 462.699219 L 546.109375 460.226562 C 533.007812 482.320312 516.691406 494.660156 498.953125 501.222656 Z M 498.953125 501.222656 " fill-opacity="1" fill-rule="nonzero"/><path fill="#000000" d="M 372.625 408.203125 C 374.261719 419.25 375.28125 427.109375 377.042969 435.75 C 378.574219 443.277344 380.136719 448.152344 380.136719 448.152344 C 380.136719 448.152344 379.765625 443.050781 379.445312 435.457031 C 379.152344 428.445312 378.84375 417.101562 377.421875 407.496094 C 375.929688 397.414062 373.609375 386.859375 368.996094 375.042969 C 364.394531 363.273438 357.992188 353.175781 352.417969 345.582031 C 346.960938 338.148438 342.800781 333.65625 342.800781 333.65625 C 342.800781 333.65625 355.804688 354.53125 364.480469 376.804688 C 368.917969 388.171875 371.171875 398.390625 372.625 408.207031 Z M 372.625 408.203125 " fill-opacity="1" fill-rule="nonzero"/><path fill="#000000" d="M 530.449219 446.023438 C 526.871094 450.53125 520.890625 456.792969 513.855469 462.628906 C 506.511719 468.613281 501.632812 472.84375 495.328125 476.292969 C 489.910156 479.257812 485.671875 480.191406 485.671875 480.191406 C 485.671875 480.191406 490.011719 480.492188 496.269531 478.503906 C 503 476.367188 509.9375 472.273438 516.953125 466.355469 C 524.191406 460.347656 530.460938 453.804688 534.246094 449.035156 Z M 530.449219 446.023438 " fill-opacity="1" fill-rule="nonzero"/><path fill="#da8333" d="M 314.714844 390.902344 L 314.910156 391.191406 L 315.273438 391.789062 L 315.605469 392.402344 L 315.914062 393.027344 L 316.195312 393.664062 L 316.445312 394.316406 L 316.671875 394.976562 L 316.863281 395.644531 L 317.03125 396.320312 L 317.167969 397.003906 L 317.273438 397.695312 L 317.347656 398.386719 L 317.394531 399.082031 L 317.410156 399.78125 L 317.394531 400.476562 L 317.347656 401.171875 L 317.273438 401.867188 L 317.167969 402.554688 L 317.03125 403.238281 L 316.863281 403.917969 L 316.671875 404.585938 L 316.445312 405.246094 L 316.195312 405.898438 L 315.914062 406.535156 L 315.605469 407.160156 L 315.273438 407.769531 L 314.910156 408.367188 L 314.523438 408.945312 L 314.113281 409.511719 L 313.675781 410.054688 L 313.214844 410.578125 L 312.734375 411.082031 L 312.230469 411.5625 L 311.707031 412.023438 L 311.164062 412.457031 L 310.601562 412.871094 L 310.023438 413.257812 L 309.429688 413.621094 L 308.820312 413.957031 L 308.195312 414.265625 L 307.554688 414.546875 L 306.90625 414.796875 L 306.246094 415.023438 L 305.578125 415.214844 L 304.902344 415.382812 L 304.21875 415.519531 L 303.53125 415.625 L 302.835938 415.699219 L 302.140625 415.746094 L 301.445312 415.761719 L 300.75 415.746094 L 300.054688 415.699219 L 299.363281 415.625 L 298.675781 415.519531 L 297.992188 415.382812 L 297.316406 415.214844 L 296.648438 415.023438 L 295.988281 414.796875 L 295.339844 414.546875 L 294.699219 414.265625 L 294.078125 413.957031 L 293.464844 413.621094 L 293.660156 413.910156 L 294.070312 414.472656 L 294.507812 415.015625 L 294.964844 415.542969 L 295.449219 416.046875 L 295.949219 416.527344 L 296.472656 416.984375 L 297.015625 417.421875 L 297.578125 417.835938 L 298.160156 418.222656 L 298.753906 418.585938 L 299.363281 418.921875 L 299.988281 419.226562 L 300.628906 419.511719 L 301.277344 419.761719 L 301.9375 419.984375 L 302.605469 420.179688 L 303.28125 420.347656 L 303.964844 420.484375 L 304.652344 420.589844 L 305.34375 420.664062 L 306.039062 420.710938 L 306.734375 420.726562 L 307.429688 420.710938 L 308.125 420.664062 L 308.820312 420.589844 L 309.507812 420.484375 L 310.191406 420.347656 L 310.867188 420.179688 L 311.535156 419.984375 L 312.195312 419.761719 L 312.84375 419.511719 L 313.484375 419.226562 L 314.105469 418.921875 L 314.71875 418.585938 L 315.3125 418.222656 L 315.890625 417.835938 L 316.453125 417.421875 L 316.996094 416.984375 L 317.519531 416.527344 L 318.023438 416.046875 L 318.503906 415.542969 L 318.964844 415.015625 L 319.402344 414.472656 L 319.8125 413.910156 L 320.199219 413.332031 L 320.558594 412.734375 L 320.894531 412.121094 L 321.203125 411.5 L 321.484375 410.859375 L 321.734375 410.210938 L 321.960938 409.550781 L 322.152344 408.882812 L 322.320312 408.203125 L 322.457031 407.519531 L 322.5625 406.828125 L 322.636719 406.136719 L 322.683594 405.441406 L 322.699219 404.746094 L 322.683594 404.046875 L 322.636719 403.351562 L 322.5625 402.660156 L 322.457031 401.96875 L 322.320312 401.285156 L 322.152344 400.609375 L 321.960938 399.9375 L 321.734375 399.277344 L 321.484375 398.628906 L 321.203125 397.988281 L 320.894531 397.367188 L 320.558594 396.753906 L 320.199219 396.15625 L 319.8125 395.578125 L 319.402344 395.015625 L 318.964844 394.472656 L 318.503906 393.949219 L 318.023438 393.445312 L 317.519531 392.960938 L 316.996094 392.503906 L 316.453125 392.066406 L 315.890625 391.652344 L 315.3125 391.265625 L 314.71875 390.902344 Z M 314.714844 390.902344 " fill-opacity="1" fill-rule="nonzero"/><path fill="#da8333" d="M 342.652344 463.117188 L 342.792969 463.320312 L 343.046875 463.746094 L 343.285156 464.175781 L 343.503906 464.621094 L 343.703125 465.074219 L 343.882812 465.535156 L 344.039062 466.003906 L 344.175781 466.476562 L 344.292969 466.957031 L 344.390625 467.441406 L 344.464844 467.929688 L 344.519531 468.421875 L 344.554688 468.914062 L 344.566406 469.410156 L 344.554688 469.902344 L 344.519531 470.398438 L 344.464844 470.886719 L 344.390625 471.375 L 344.292969 471.863281 L 344.175781 472.34375 L 344.039062 472.816406 L 343.882812 473.285156 L 343.703125 473.746094 L 343.503906 474.199219 L 343.285156 474.640625 L 343.046875 475.074219 L 342.792969 475.496094 L 342.515625 475.90625 L 342.226562 476.308594 L 341.914062 476.691406 L 341.589844 477.0625 L 341.25 477.421875 L 340.890625 477.761719 L 340.519531 478.089844 L 340.136719 478.398438 L 339.738281 478.691406 L 339.328125 478.964844 L 338.90625 479.222656 L 338.472656 479.460938 L 338.03125 479.679688 L 337.578125 479.878906 L 337.117188 480.058594 L 336.648438 480.214844 L 336.175781 480.355469 L 335.695312 480.472656 L 335.210938 480.566406 L 334.722656 480.644531 L 334.230469 480.695312 L 333.738281 480.730469 L 333.246094 480.742188 L 332.75 480.730469 L 332.257812 480.695312 L 331.769531 480.644531 L 331.28125 480.566406 L 330.796875 480.472656 L 330.316406 480.355469 L 329.84375 480.214844 L 329.375 480.058594 L 328.914062 479.878906 L 328.464844 479.679688 L 328.019531 479.460938 L 327.589844 479.222656 L 327.726562 479.425781 L 328.015625 479.828125 L 328.328125 480.210938 L 328.652344 480.582031 L 328.992188 480.941406 L 329.347656 481.28125 L 329.722656 481.609375 L 330.105469 481.917969 L 330.503906 482.210938 L 330.914062 482.484375 L 331.335938 482.742188 L 331.769531 482.980469 L 332.214844 483.195312 L 332.664062 483.398438 L 333.125 483.578125 L 333.59375 483.734375 L 334.066406 483.871094 L 334.546875 483.988281 L 335.03125 484.085938 L 335.519531 484.160156 L 336.007812 484.214844 L 336.5 484.246094 L 336.996094 484.261719 L 337.488281 484.246094 L 337.980469 484.214844 L 338.472656 484.160156 L 338.960938 484.085938 L 339.445312 483.988281 L 339.925781 483.871094 L 340.398438 483.734375 L 340.867188 483.578125 L 341.328125 483.398438 L 341.78125 483.195312 L 342.222656 482.980469 L 342.65625 482.742188 L 343.078125 482.484375 L 343.488281 482.210938 L 343.886719 481.917969 L 344.269531 481.609375 L 344.640625 481.28125 L 345 480.941406 L 345.339844 480.582031 L 345.664062 480.210938 L 345.976562 479.828125 L 346.265625 479.425781 L 346.542969 479.015625 L 346.796875 478.59375 L 347.035156 478.160156 L 347.253906 477.71875 L 347.453125 477.265625 L 347.628906 476.804688 L 347.789062 476.335938 L 347.925781 475.863281 L 348.042969 475.382812 L 348.140625 474.894531 L 348.214844 474.40625 L 348.269531 473.917969 L 348.304688 473.421875 L 348.316406 472.929688 L 348.304688 472.433594 L 348.269531 471.941406 L 348.214844 471.449219 L 348.140625 470.960938 L 348.042969 470.476562 L 347.925781 469.996094 L 347.789062 469.523438 L 347.628906 469.054688 L 347.453125 468.59375 L 347.253906 468.140625 L 347.035156 467.699219 L 346.796875 467.265625 L 346.542969 466.839844 L 346.265625 466.429688 L 345.976562 466.03125 L 345.664062 465.644531 L 345.339844 465.273438 L 345 464.917969 L 344.640625 464.574219 L 344.269531 464.25 L 343.886719 463.941406 L 343.488281 463.648438 L 343.078125 463.371094 L 342.65625 463.117188 Z M 342.652344 463.117188 " fill-opacity="1" fill-rule="nonzero"/><path fill="#da8333" d="M 243.597656 364.449219 L 243.769531 364.707031 L 244.089844 365.238281 L 244.386719 365.777344 L 244.660156 366.332031 L 244.90625 366.898438 L 245.132812 367.476562 L 245.332031 368.0625 L 245.503906 368.65625 L 245.648438 369.257812 L 245.769531 369.863281 L 245.863281 370.476562 L 245.929688 371.089844 L 245.972656 371.707031 L 245.988281 372.324219 L 245.972656 372.941406 L 245.929688 373.558594 L 245.863281 374.171875 L 245.769531 374.785156 L 245.648438 375.390625 L 245.503906 375.996094 L 245.332031 376.585938 L 245.132812 377.171875 L 244.90625 377.75 L 244.660156 378.316406 L 244.386719 378.871094 L 244.089844 379.410156 L 243.769531 379.941406 L 243.425781 380.453125 L 243.058594 380.953125 L 242.671875 381.4375 L 242.265625 381.902344 L 241.839844 382.347656 L 241.390625 382.773438 L 240.925781 383.183594 L 240.445312 383.570312 L 239.945312 383.9375 L 239.433594 384.28125 L 238.90625 384.601562 L 238.363281 384.898438 L 237.8125 385.171875 L 237.246094 385.421875 L 236.667969 385.644531 L 236.085938 385.84375 L 235.492188 386.015625 L 234.890625 386.164062 L 234.285156 386.285156 L 233.671875 386.378906 L 233.058594 386.445312 L 232.441406 386.488281 L 231.828125 386.5 L 231.207031 386.488281 L 230.589844 386.445312 L 229.976562 386.378906 L 229.367188 386.285156 L 228.761719 386.164062 L 228.160156 386.015625 L 227.570312 385.84375 L 226.984375 385.644531 L 226.40625 385.421875 L 225.84375 385.171875 L 225.289062 384.898438 L 224.746094 384.601562 L 224.917969 384.855469 L 225.285156 385.359375 L 225.671875 385.839844 L 226.078125 386.304688 L 226.503906 386.753906 L 226.949219 387.179688 L 227.414062 387.585938 L 227.898438 387.972656 L 228.394531 388.339844 L 228.910156 388.683594 L 229.4375 389.003906 L 229.980469 389.300781 L 230.53125 389.574219 L 231.097656 389.824219 L 231.675781 390.050781 L 232.261719 390.246094 L 232.851562 390.417969 L 233.453125 390.566406 L 234.058594 390.6875 L 234.667969 390.78125 L 235.28125 390.847656 L 235.898438 390.890625 L 236.515625 390.902344 L 237.132812 390.890625 L 237.75 390.847656 L 238.363281 390.78125 L 238.976562 390.6875 L 239.582031 390.566406 L 240.183594 390.417969 L 240.773438 390.246094 L 241.359375 390.050781 L 241.9375 389.824219 L 242.5 389.574219 L 243.054688 389.300781 L 243.597656 389.003906 L 244.125 388.683594 L 244.636719 388.339844 L 245.136719 387.972656 L 245.617188 387.585938 L 246.082031 387.179688 L 246.53125 386.753906 L 246.957031 386.304688 L 247.363281 385.839844 L 247.75 385.359375 L 248.113281 384.855469 L 248.460938 384.34375 L 248.78125 383.816406 L 249.074219 383.273438 L 249.351562 382.71875 L 249.597656 382.152344 L 249.824219 381.574219 L 250.023438 380.988281 L 250.191406 380.398438 L 250.339844 379.796875 L 250.460938 379.1875 L 250.554688 378.578125 L 250.621094 377.960938 L 250.664062 377.347656 L 250.679688 376.726562 L 250.664062 376.109375 L 250.621094 375.492188 L 250.554688 374.878906 L 250.460938 374.265625 L 250.339844 373.660156 L 250.191406 373.058594 L 250.023438 372.464844 L 249.824219 371.878906 L 249.597656 371.300781 L 249.351562 370.734375 L 249.074219 370.183594 L 248.78125 369.640625 L 248.460938 369.109375 L 248.113281 368.597656 L 247.75 368.097656 L 247.363281 367.617188 L 246.957031 367.152344 L 246.53125 366.703125 L 246.082031 366.277344 L 245.617188 365.871094 L 245.136719 365.480469 L 244.636719 365.117188 L 244.125 364.769531 Z M 243.597656 364.449219 " fill-opacity="1" fill-rule="nonzero"/><path fill="#da8333" d="M 300.90625 231.410156 L 301.082031 231.664062 L 301.402344 232.195312 L 301.695312 232.738281 L 301.972656 233.292969 L 302.21875 233.855469 L 302.441406 234.433594 L 302.644531 235.019531 L 302.8125 235.613281 L 302.960938 236.214844 L 303.082031 236.820312 L 303.175781 237.433594 L 303.242188 238.046875 L 303.285156 238.664062 L 303.296875 239.28125 L 303.285156 239.902344 L 303.242188 240.519531 L 303.175781 241.132812 L 303.082031 241.742188 L 302.960938 242.351562 L 302.8125 242.953125 L 302.644531 243.546875 L 302.441406 244.128906 L 302.21875 244.707031 L 301.972656 245.273438 L 301.695312 245.828125 L 301.402344 246.371094 L 301.082031 246.898438 L 300.734375 247.414062 L 300.371094 247.914062 L 299.984375 248.394531 L 299.578125 248.859375 L 299.152344 249.308594 L 298.703125 249.734375 L 298.238281 250.140625 L 297.757812 250.527344 L 297.257812 250.894531 L 296.746094 251.238281 L 296.21875 251.558594 L 295.675781 251.859375 L 295.121094 252.128906 L 294.554688 252.378906 L 293.980469 252.605469 L 293.394531 252.800781 L 292.804688 252.976562 L 292.203125 253.121094 L 291.597656 253.242188 L 290.984375 253.335938 L 290.371094 253.402344 L 289.753906 253.445312 L 289.136719 253.460938 L 288.519531 253.445312 L 287.902344 253.402344 L 287.289062 253.335938 L 286.679688 253.242188 L 286.074219 253.121094 L 285.472656 252.976562 L 284.882812 252.800781 L 284.296875 252.605469 L 283.71875 252.378906 L 283.152344 252.128906 L 282.601562 251.859375 L 282.058594 251.558594 L 282.230469 251.816406 L 282.59375 252.316406 L 282.984375 252.796875 L 283.390625 253.261719 L 283.816406 253.710938 L 284.261719 254.136719 L 284.726562 254.542969 L 285.207031 254.929688 L 285.707031 255.296875 L 286.222656 255.640625 L 286.75 255.960938 L 287.292969 256.261719 L 287.84375 256.53125 L 288.410156 256.785156 L 288.988281 257.007812 L 289.570312 257.203125 L 290.164062 257.378906 L 290.765625 257.523438 L 291.371094 257.644531 L 291.980469 257.738281 L 292.59375 257.804688 L 293.210938 257.847656 L 293.828125 257.863281 L 294.445312 257.847656 L 295.0625 257.804688 L 295.675781 257.738281 L 296.289062 257.644531 L 296.894531 257.523438 L 297.496094 257.378906 L 298.085938 257.203125 L 298.671875 257.007812 L 299.246094 256.785156 L 299.8125 256.53125 L 300.367188 256.261719 L 300.910156 255.960938 L 301.4375 255.640625 L 301.949219 255.296875 L 302.449219 254.929688 L 302.929688 254.542969 L 303.394531 254.136719 L 303.84375 253.710938 L 304.269531 253.261719 L 304.675781 252.796875 L 305.0625 252.316406 L 305.425781 251.816406 L 305.769531 251.300781 L 306.089844 250.773438 L 306.386719 250.230469 L 306.664062 249.675781 L 306.910156 249.113281 L 307.132812 248.535156 L 307.335938 247.949219 L 307.503906 247.355469 L 307.652344 246.753906 L 307.773438 246.148438 L 307.867188 245.535156 L 307.933594 244.921875 L 307.976562 244.304688 L 307.988281 243.6875 L 307.976562 243.066406 L 307.933594 242.449219 L 307.867188 241.835938 L 307.773438 241.222656 L 307.652344 240.617188 L 307.503906 240.019531 L 307.335938 239.421875 L 307.132812 238.839844 L 306.910156 238.261719 L 306.664062 237.695312 L 306.386719 237.140625 L 306.089844 236.597656 L 305.769531 236.070312 L 305.425781 235.554688 L 305.0625 235.058594 L 304.675781 234.574219 L 304.269531 234.109375 L 303.84375 233.664062 L 303.394531 233.234375 L 302.929688 232.828125 L 302.449219 232.441406 L 301.949219 232.074219 L 301.4375 231.730469 L 300.910156 231.410156 Z M 300.90625 231.410156 " fill-opacity="1" fill-rule="nonzero"/><path fill="#da8333" d="M 237.707031 444.847656 L 237.808594 445 L 237.992188 445.304688 L 238.164062 445.621094 L 238.324219 445.945312 L 238.46875 446.273438 L 238.597656 446.609375 L 238.714844 446.949219 L 238.816406 447.292969 L 238.898438 447.644531 L 238.96875 447.996094 L 239.023438 448.351562 L 239.0625 448.707031 L 239.089844 449.066406 L 239.097656 449.425781 L 239.089844 449.785156 L 239.0625 450.144531 L 239.023438 450.5 L 238.96875 450.855469 L 238.898438 451.210938 L 238.816406 451.558594 L 238.714844 451.90625 L 238.597656 452.246094 L 238.46875 452.582031 L 238.324219 452.910156 L 238.164062 453.230469 L 237.992188 453.546875 L 237.808594 453.855469 L 237.605469 454.152344 L 237.394531 454.445312 L 237.171875 454.722656 L 236.933594 454.992188 L 236.6875 455.253906 L 236.425781 455.5 L 236.15625 455.738281 L 235.875 455.964844 L 235.585938 456.175781 L 235.289062 456.378906 L 234.980469 456.5625 L 234.667969 456.738281 L 234.34375 456.894531 L 234.015625 457.039062 L 233.679688 457.171875 L 233.339844 457.285156 L 232.996094 457.386719 L 232.648438 457.472656 L 232.292969 457.542969 L 231.9375 457.597656 L 231.582031 457.636719 L 231.222656 457.660156 L 230.863281 457.667969 L 230.503906 457.660156 L 230.148438 457.636719 L 229.789062 457.597656 L 229.4375 457.542969 L 229.082031 457.472656 L 228.734375 457.386719 L 228.390625 457.285156 L 228.050781 457.171875 L 227.714844 457.039062 L 227.386719 456.894531 L 227.0625 456.738281 L 226.75 456.5625 L 226.847656 456.710938 L 227.0625 457.003906 L 227.285156 457.285156 L 227.523438 457.554688 L 227.769531 457.8125 L 228.03125 458.0625 L 228.300781 458.296875 L 228.582031 458.523438 L 228.871094 458.738281 L 229.167969 458.9375 L 229.476562 459.121094 L 229.792969 459.296875 L 230.113281 459.453125 L 230.441406 459.601562 L 230.777344 459.730469 L 231.117188 459.84375 L 231.460938 459.945312 L 231.808594 460.03125 L 232.164062 460.101562 L 232.515625 460.15625 L 232.875 460.195312 L 233.234375 460.21875 L 233.59375 460.226562 L 233.949219 460.21875 L 234.308594 460.195312 L 234.667969 460.15625 L 235.019531 460.101562 L 235.375 460.03125 L 235.722656 459.945312 L 236.066406 459.84375 L 236.40625 459.730469 L 236.742188 459.601562 L 237.070312 459.453125 L 237.394531 459.296875 L 237.707031 459.121094 L 238.015625 458.9375 L 238.3125 458.738281 L 238.601562 458.523438 L 238.882812 458.296875 L 239.152344 458.0625 L 239.414062 457.8125 L 239.660156 457.554688 L 239.898438 457.285156 L 240.121094 457.003906 L 240.335938 456.710938 L 240.535156 456.414062 L 240.71875 456.105469 L 240.890625 455.789062 L 241.050781 455.46875 L 241.195312 455.140625 L 241.328125 454.804688 L 241.441406 454.464844 L 241.542969 454.121094 L 241.628906 453.769531 L 241.699219 453.417969 L 241.75 453.0625 L 241.792969 452.703125 L 241.816406 452.347656 L 241.824219 451.984375 L 241.816406 451.625 L 241.792969 451.269531 L 241.75 450.910156 L 241.699219 450.554688 L 241.628906 450.203125 L 241.542969 449.855469 L 241.441406 449.507812 L 241.328125 449.167969 L 241.195312 448.832031 L 241.050781 448.503906 L 240.890625 448.179688 L 240.71875 447.867188 L 240.535156 447.558594 L 240.335938 447.261719 L 240.121094 446.96875 L 239.898438 446.6875 L 239.660156 446.417969 L 239.414062 446.160156 L 239.152344 445.910156 L 238.882812 445.675781 L 238.601562 445.449219 L 238.3125 445.234375 L 238.015625 445.035156 Z M 237.707031 444.847656 " fill-opacity="1" fill-rule="nonzero"/><path fill="#da8333" d="M 307.125 315.363281 L 307.222656 315.515625 L 307.410156 315.820312 L 307.582031 316.136719 L 307.742188 316.460938 L 307.886719 316.789062 L 308.015625 317.125 L 308.132812 317.464844 L 308.230469 317.808594 L 308.316406 318.160156 L 308.386719 318.511719 L 308.441406 318.867188 L 308.480469 319.222656 L 308.503906 319.582031 L 308.515625 319.941406 L 308.503906 320.300781 L 308.480469 320.660156 L 308.441406 321.015625 L 308.386719 321.371094 L 308.316406 321.726562 L 308.230469 322.074219 L 308.132812 322.421875 L 308.015625 322.761719 L 307.886719 323.097656 L 307.742188 323.425781 L 307.582031 323.746094 L 307.410156 324.0625 L 307.222656 324.371094 L 307.023438 324.667969 L 306.8125 324.960938 L 306.585938 325.238281 L 306.351562 325.507812 L 306.101562 325.769531 L 305.84375 326.015625 L 305.574219 326.253906 L 305.292969 326.480469 L 305.003906 326.691406 L 304.703125 326.894531 L 304.398438 327.078125 L 304.082031 327.253906 L 303.761719 327.410156 L 303.433594 327.554688 L 303.097656 327.6875 L 302.757812 327.800781 L 302.414062 327.902344 L 302.0625 327.988281 L 301.710938 328.058594 L 301.355469 328.113281 L 301 328.152344 L 300.640625 328.175781 L 300.28125 328.183594 L 299.921875 328.175781 L 299.5625 328.152344 L 299.207031 328.113281 L 298.851562 328.058594 L 298.5 327.988281 L 298.152344 327.902344 L 297.808594 327.800781 L 297.46875 327.6875 L 297.132812 327.554688 L 296.804688 327.410156 L 296.480469 327.253906 L 296.167969 327.078125 L 296.265625 327.226562 L 296.476562 327.519531 L 296.703125 327.800781 L 296.941406 328.070312 L 297.1875 328.328125 L 297.445312 328.578125 L 297.71875 328.8125 L 297.996094 329.039062 L 298.285156 329.253906 L 298.585938 329.453125 L 298.894531 329.636719 L 299.207031 329.8125 L 299.53125 329.96875 L 299.859375 330.117188 L 300.195312 330.246094 L 300.535156 330.359375 L 300.878906 330.460938 L 301.226562 330.546875 L 301.578125 330.617188 L 301.933594 330.671875 L 302.289062 330.710938 L 302.648438 330.734375 L 303.007812 330.742188 L 303.367188 330.734375 L 303.726562 330.710938 L 304.082031 330.671875 L 304.4375 330.617188 L 304.792969 330.546875 L 305.140625 330.460938 L 305.484375 330.359375 L 305.824219 330.246094 L 306.160156 330.117188 L 306.488281 329.96875 L 306.808594 329.8125 L 307.125 329.636719 L 307.429688 329.453125 L 307.730469 329.253906 L 308.019531 329.039062 L 308.300781 328.8125 L 308.570312 328.578125 L 308.828125 328.328125 L 309.078125 328.070312 L 309.3125 327.800781 L 309.539062 327.519531 L 309.75 327.226562 L 309.949219 326.929688 L 310.136719 326.621094 L 310.308594 326.304688 L 310.46875 325.984375 L 310.613281 325.65625 L 310.742188 325.320312 L 310.859375 324.980469 L 310.957031 324.636719 L 311.042969 324.285156 L 311.113281 323.933594 L 311.167969 323.578125 L 311.207031 323.21875 L 311.230469 322.863281 L 311.242188 322.5 L 311.230469 322.140625 L 311.207031 321.785156 L 311.167969 321.425781 L 311.113281 321.070312 L 311.042969 320.71875 L 310.957031 320.371094 L 310.859375 320.023438 L 310.742188 319.683594 L 310.613281 319.347656 L 310.46875 319.019531 L 310.308594 318.695312 L 310.136719 318.382812 L 309.949219 318.074219 L 309.75 317.777344 L 309.539062 317.484375 L 309.3125 317.203125 L 309.078125 316.933594 L 308.828125 316.675781 L 308.570312 316.425781 L 308.300781 316.191406 L 308.019531 315.964844 L 307.730469 315.75 L 307.429688 315.550781 Z M 307.125 315.363281 " fill-opacity="1" fill-rule="nonzero"/><path fill="#da8333" d="M 396.898438 299.34375 L 397 299.492188 L 397.1875 299.800781 L 397.359375 300.113281 L 397.519531 300.4375 L 397.660156 300.765625 L 397.792969 301.101562 L 397.90625 301.441406 L 398.007812 301.789062 L 398.09375 302.136719 L 398.164062 302.488281 L 398.21875 302.84375 L 398.257812 303.203125 L 398.28125 303.558594 L 398.289062 303.921875 L 398.28125 304.28125 L 398.257812 304.636719 L 398.21875 304.996094 L 398.164062 305.351562 L 398.09375 305.703125 L 398.007812 306.054688 L 397.90625 306.398438 L 397.792969 306.738281 L 397.660156 307.074219 L 397.519531 307.402344 L 397.359375 307.726562 L 397.1875 308.039062 L 397 308.347656 L 396.800781 308.644531 L 396.589844 308.9375 L 396.363281 309.21875 L 396.125 309.488281 L 395.878906 309.746094 L 395.617188 309.996094 L 395.347656 310.230469 L 395.066406 310.457031 L 394.777344 310.671875 L 394.480469 310.871094 L 394.171875 311.058594 L 393.859375 311.230469 L 393.535156 311.390625 L 393.207031 311.535156 L 392.875 311.664062 L 392.53125 311.777344 L 392.1875 311.878906 L 391.839844 311.964844 L 391.488281 312.035156 L 391.132812 312.089844 L 390.773438 312.128906 L 390.417969 312.152344 L 390.058594 312.164062 L 389.699219 312.152344 L 389.339844 312.128906 L 388.984375 312.089844 L 388.628906 312.035156 L 388.277344 311.964844 L 387.925781 311.878906 L 387.582031 311.777344 L 387.242188 311.664062 L 386.90625 311.535156 L 386.578125 311.390625 L 386.257812 311.230469 L 385.941406 311.058594 L 386.042969 311.207031 L 386.253906 311.496094 L 386.480469 311.777344 L 386.714844 312.046875 L 386.964844 312.308594 L 387.222656 312.554688 L 387.492188 312.792969 L 387.773438 313.015625 L 388.0625 313.230469 L 388.363281 313.429688 L 388.667969 313.617188 L 388.984375 313.789062 L 389.304688 313.949219 L 389.636719 314.09375 L 389.96875 314.222656 L 390.308594 314.339844 L 390.652344 314.4375 L 391.003906 314.523438 L 391.355469 314.59375 L 391.710938 314.648438 L 392.066406 314.6875 L 392.425781 314.710938 L 392.785156 314.722656 L 393.144531 314.710938 L 393.5 314.6875 L 393.859375 314.648438 L 394.214844 314.59375 L 394.566406 314.523438 L 394.914062 314.4375 L 395.257812 314.339844 L 395.601562 314.222656 L 395.933594 314.09375 L 396.261719 313.949219 L 396.585938 313.789062 L 396.898438 313.617188 L 397.207031 313.429688 L 397.503906 313.230469 L 397.792969 313.015625 L 398.074219 312.792969 L 398.34375 312.554688 L 398.605469 312.308594 L 398.851562 312.046875 L 399.089844 311.777344 L 399.316406 311.496094 L 399.527344 311.207031 L 399.726562 310.90625 L 399.914062 310.601562 L 400.085938 310.285156 L 400.246094 309.960938 L 400.386719 309.632812 L 400.519531 309.296875 L 400.636719 308.957031 L 400.734375 308.613281 L 400.820312 308.261719 L 400.890625 307.910156 L 400.945312 307.554688 L 400.984375 307.199219 L 401.007812 306.839844 L 401.015625 306.480469 L 401.007812 306.121094 L 400.984375 305.761719 L 400.945312 305.40625 L 400.890625 305.046875 L 400.820312 304.695312 L 400.734375 304.347656 L 400.636719 304 L 400.519531 303.660156 L 400.386719 303.324219 L 400.246094 302.996094 L 400.085938 302.675781 L 399.914062 302.359375 L 399.726562 302.050781 L 399.527344 301.753906 L 399.316406 301.464844 L 399.089844 301.183594 L 398.851562 300.914062 L 398.605469 300.652344 L 398.34375 300.402344 L 398.074219 300.167969 L 397.792969 299.941406 L 397.503906 299.730469 L 397.207031 299.53125 Z M 396.898438 299.34375 " fill-opacity="1" fill-rule="nonzero"/><path fill="#da8333" d="M 434.09375 400.601562 L 434.191406 400.75 L 434.378906 401.058594 L 434.550781 401.375 L 434.710938 401.695312 L 434.855469 402.027344 L 434.984375 402.363281 L 435.101562 402.703125 L 435.199219 403.046875 L 435.285156 403.394531 L 435.355469 403.75 L 435.410156 404.105469 L 435.449219 404.460938 L 435.472656 404.820312 L 435.484375 405.179688 L 435.472656 405.539062 L 435.449219 405.898438 L 435.410156 406.253906 L 435.355469 406.609375 L 435.285156 406.964844 L 435.199219 407.3125 L 435.101562 407.65625 L 434.984375 407.996094 L 434.855469 408.332031 L 434.710938 408.664062 L 434.550781 408.984375 L 434.378906 409.300781 L 434.191406 409.609375 L 433.992188 409.90625 L 433.78125 410.195312 L 433.554688 410.476562 L 433.320312 410.746094 L 433.070312 411.007812 L 432.8125 411.253906 L 432.539062 411.492188 L 432.261719 411.71875 L 431.972656 411.929688 L 431.671875 412.128906 L 431.367188 412.316406 L 431.050781 412.488281 L 430.730469 412.648438 L 430.398438 412.792969 L 430.066406 412.925781 L 429.726562 413.039062 L 429.382812 413.140625 L 429.03125 413.226562 L 428.679688 413.292969 L 428.324219 413.351562 L 427.96875 413.390625 L 427.609375 413.414062 L 427.25 413.421875 L 426.890625 413.414062 L 426.53125 413.390625 L 426.175781 413.351562 L 425.820312 413.292969 L 425.46875 413.226562 L 425.121094 413.140625 L 424.777344 413.039062 L 424.433594 412.925781 L 424.101562 412.792969 L 423.773438 412.648438 L 423.449219 412.488281 L 423.136719 412.316406 L 423.234375 412.464844 L 423.445312 412.757812 L 423.671875 413.035156 L 423.910156 413.308594 L 424.15625 413.566406 L 424.414062 413.816406 L 424.6875 414.050781 L 424.964844 414.277344 L 425.253906 414.488281 L 425.554688 414.691406 L 425.863281 414.875 L 426.175781 415.050781 L 426.5 415.207031 L 426.828125 415.351562 L 427.164062 415.484375 L 427.503906 415.597656 L 427.847656 415.699219 L 428.195312 415.785156 L 428.546875 415.855469 L 428.902344 415.910156 L 429.257812 415.949219 L 429.617188 415.972656 L 429.976562 415.980469 L 430.335938 415.972656 L 430.695312 415.949219 L 431.050781 415.910156 L 431.40625 415.855469 L 431.757812 415.785156 L 432.109375 415.699219 L 432.453125 415.597656 L 432.792969 415.484375 L 433.128906 415.351562 L 433.457031 415.207031 L 433.777344 415.050781 L 434.09375 414.875 L 434.398438 414.691406 L 434.699219 414.488281 L 434.988281 414.277344 L 435.269531 414.050781 L 435.539062 413.816406 L 435.796875 413.566406 L 436.046875 413.308594 L 436.28125 413.035156 L 436.507812 412.757812 L 436.71875 412.464844 L 436.917969 412.167969 L 437.105469 411.859375 L 437.277344 411.542969 L 437.4375 411.222656 L 437.582031 410.894531 L 437.710938 410.558594 L 437.828125 410.21875 L 437.925781 409.871094 L 438.011719 409.523438 L 438.082031 409.171875 L 438.136719 408.8125 L 438.175781 408.457031 L 438.199219 408.097656 L 438.210938 407.738281 L 438.199219 407.378906 L 438.175781 407.019531 L 438.136719 406.664062 L 438.082031 406.308594 L 438.011719 405.957031 L 437.925781 405.609375 L 437.828125 405.261719 L 437.710938 404.921875 L 437.582031 404.585938 L 437.4375 404.257812 L 437.277344 403.933594 L 437.105469 403.621094 L 436.917969 403.3125 L 436.71875 403.011719 L 436.507812 402.722656 L 436.28125 402.441406 L 436.046875 402.171875 L 435.796875 401.914062 L 435.539062 401.664062 L 435.269531 401.425781 L 434.988281 401.203125 L 434.699219 400.988281 L 434.398438 400.789062 Z M 434.09375 400.601562 " fill-opacity="1" fill-rule="nonzero"/><path fill="#da8333" d="M 258.9375 298.703125 L 259.058594 298.882812 L 259.289062 299.261719 L 259.5 299.648438 L 259.695312 300.042969 L 259.871094 300.445312 L 260.03125 300.859375 L 260.171875 301.273438 L 260.292969 301.699219 L 260.398438 302.125 L 260.484375 302.558594 L 260.550781 302.992188 L 260.597656 303.429688 L 260.628906 303.871094 L 260.640625 304.3125 L 260.628906 304.753906 L 260.597656 305.191406 L 260.550781 305.628906 L 260.484375 306.066406 L 260.398438 306.496094 L 260.292969 306.925781 L 260.171875 307.347656 L 260.03125 307.765625 L 259.871094 308.175781 L 259.695312 308.582031 L 259.5 308.976562 L 259.289062 309.359375 L 259.058594 309.738281 L 258.8125 310.105469 L 258.554688 310.460938 L 258.277344 310.804688 L 257.988281 311.136719 L 257.683594 311.453125 L 257.367188 311.757812 L 257.035156 312.046875 L 256.691406 312.324219 L 256.335938 312.585938 L 255.972656 312.832031 L 255.59375 313.058594 L 255.210938 313.269531 L 254.816406 313.464844 L 254.410156 313.644531 L 254 313.804688 L 253.585938 313.945312 L 253.164062 314.066406 L 252.734375 314.171875 L 252.304688 314.257812 L 251.867188 314.324219 L 251.429688 314.371094 L 250.992188 314.402344 L 250.550781 314.414062 L 250.109375 314.402344 L 249.671875 314.371094 L 249.234375 314.324219 L 248.800781 314.257812 L 248.367188 314.171875 L 247.941406 314.066406 L 247.519531 313.945312 L 247.101562 313.804688 L 246.691406 313.644531 L 246.289062 313.464844 L 245.894531 313.269531 L 245.507812 313.058594 L 245.628906 313.242188 L 245.890625 313.597656 L 246.164062 313.941406 L 246.457031 314.273438 L 246.757812 314.589844 L 247.078125 314.894531 L 247.40625 315.183594 L 247.75 315.460938 L 248.105469 315.722656 L 248.472656 315.96875 L 248.847656 316.195312 L 249.234375 316.410156 L 249.628906 316.601562 L 250.03125 316.78125 L 250.441406 316.941406 L 250.859375 317.082031 L 251.28125 317.203125 L 251.707031 317.308594 L 252.140625 317.394531 L 252.574219 317.460938 L 253.011719 317.507812 L 253.453125 317.539062 L 253.894531 317.550781 L 254.332031 317.539062 L 254.773438 317.507812 L 255.210938 317.460938 L 255.644531 317.394531 L 256.078125 317.308594 L 256.503906 317.203125 L 256.925781 317.082031 L 257.34375 316.941406 L 257.753906 316.78125 L 258.15625 316.601562 L 258.550781 316.410156 L 258.9375 316.195312 L 259.3125 315.96875 L 259.679688 315.722656 L 260.035156 315.460938 L 260.375 315.183594 L 260.707031 314.894531 L 261.027344 314.589844 L 261.332031 314.273438 L 261.621094 313.941406 L 261.898438 313.597656 L 262.15625 313.242188 L 262.402344 312.875 L 262.628906 312.5 L 262.839844 312.113281 L 263.035156 311.71875 L 263.210938 311.3125 L 263.371094 310.902344 L 263.515625 310.484375 L 263.636719 310.0625 L 263.738281 309.632812 L 263.828125 309.203125 L 263.894531 308.765625 L 263.941406 308.328125 L 263.972656 307.890625 L 263.984375 307.449219 L 263.972656 307.007812 L 263.941406 306.570312 L 263.894531 306.132812 L 263.828125 305.695312 L 263.738281 305.261719 L 263.636719 304.835938 L 263.515625 304.410156 L 263.371094 303.996094 L 263.210938 303.582031 L 263.035156 303.179688 L 262.839844 302.785156 L 262.628906 302.398438 L 262.402344 302.023438 L 262.15625 301.65625 L 261.898438 301.300781 L 261.621094 300.957031 L 261.332031 300.625 L 261.027344 300.308594 L 260.707031 300.003906 L 260.375 299.710938 L 260.035156 299.4375 L 259.679688 299.175781 L 259.3125 298.929688 Z M 258.9375 298.703125 " fill-opacity="1" fill-rule="nonzero"/><path fill="#da8333" d="M 437.847656 354.457031 L 437.96875 354.640625 L 438.199219 355.019531 L 438.410156 355.40625 L 438.605469 355.800781 L 438.78125 356.203125 L 438.941406 356.613281 L 439.082031 357.03125 L 439.203125 357.457031 L 439.308594 357.882812 L 439.394531 358.316406 L 439.460938 358.75 L 439.507812 359.1875 L 439.539062 359.628906 L 439.550781 360.070312 L 439.539062 360.507812 L 439.507812 360.949219 L 439.460938 361.386719 L 439.394531 361.820312 L 439.308594 362.253906 L 439.203125 362.683594 L 439.082031 363.105469 L 438.941406 363.523438 L 438.78125 363.933594 L 438.605469 364.335938 L 438.410156 364.730469 L 438.199219 365.117188 L 437.96875 365.496094 L 437.722656 365.859375 L 437.464844 366.21875 L 437.1875 366.5625 L 436.898438 366.890625 L 436.59375 367.210938 L 436.277344 367.515625 L 435.945312 367.804688 L 435.601562 368.082031 L 435.246094 368.339844 L 434.882812 368.585938 L 434.503906 368.816406 L 434.121094 369.027344 L 433.726562 369.222656 L 433.320312 369.402344 L 432.910156 369.558594 L 432.496094 369.699219 L 432.074219 369.824219 L 431.644531 369.929688 L 431.214844 370.015625 L 430.777344 370.082031 L 430.339844 370.128906 L 429.902344 370.160156 L 429.460938 370.171875 L 429.019531 370.160156 L 428.582031 370.128906 L 428.144531 370.082031 L 427.710938 370.015625 L 427.277344 369.929688 L 426.851562 369.824219 L 426.429688 369.699219 L 426.011719 369.558594 L 425.601562 369.402344 L 425.199219 369.222656 L 424.804688 369.027344 L 424.417969 368.816406 L 424.539062 368.996094 L 424.800781 369.355469 L 425.074219 369.699219 L 425.367188 370.027344 L 425.667969 370.347656 L 425.988281 370.652344 L 426.316406 370.941406 L 426.660156 371.21875 L 427.015625 371.480469 L 427.382812 371.722656 L 427.757812 371.953125 L 428.144531 372.164062 L 428.539062 372.359375 L 428.941406 372.539062 L 429.351562 372.695312 L 429.769531 372.835938 L 430.191406 372.960938 L 430.617188 373.066406 L 431.050781 373.152344 L 431.484375 373.21875 L 431.921875 373.265625 L 432.363281 373.296875 L 432.804688 373.308594 L 433.242188 373.296875 L 433.683594 373.265625 L 434.121094 373.21875 L 434.554688 373.152344 L 434.988281 373.066406 L 435.414062 372.960938 L 435.835938 372.835938 L 436.253906 372.695312 L 436.664062 372.539062 L 437.066406 372.359375 L 437.460938 372.164062 L 437.847656 371.953125 L 438.222656 371.722656 L 438.589844 371.480469 L 438.945312 371.21875 L 439.285156 370.941406 L 439.617188 370.652344 L 439.9375 370.347656 L 440.242188 370.027344 L 440.53125 369.699219 L 440.808594 369.355469 L 441.066406 368.996094 L 441.3125 368.632812 L 441.539062 368.253906 L 441.75 367.867188 L 441.945312 367.472656 L 442.121094 367.070312 L 442.28125 366.660156 L 442.425781 366.242188 L 442.546875 365.820312 L 442.652344 365.390625 L 442.738281 364.960938 L 442.804688 364.523438 L 442.851562 364.085938 L 442.882812 363.648438 L 442.894531 363.207031 L 442.882812 362.765625 L 442.851562 362.324219 L 442.804688 361.886719 L 442.738281 361.453125 L 442.652344 361.019531 L 442.546875 360.59375 L 442.425781 360.167969 L 442.28125 359.75 L 442.121094 359.339844 L 441.945312 358.9375 L 441.75 358.542969 L 441.539062 358.15625 L 441.3125 357.777344 L 441.066406 357.414062 L 440.808594 357.058594 L 440.53125 356.714844 L 440.242188 356.382812 L 439.9375 356.066406 L 439.617188 355.757812 L 439.285156 355.46875 L 438.945312 355.191406 L 438.589844 354.933594 L 438.222656 354.6875 L 437.847656 354.460938 Z M 437.847656 354.457031 " fill-opacity="1" fill-rule="nonzero"/><path fill="#da8333" d="M 454.519531 437.132812 L 454.640625 437.316406 L 454.871094 437.691406 L 455.082031 438.078125 L 455.277344 438.472656 L 455.453125 438.875 L 455.613281 439.289062 L 455.753906 439.707031 L 455.875 440.128906 L 455.980469 440.558594 L 456.066406 440.988281 L 456.132812 441.425781 L 456.183594 441.863281 L 456.210938 442.300781 L 456.222656 442.742188 L 456.210938 443.183594 L 456.183594 443.621094 L 456.132812 444.058594 L 456.066406 444.496094 L 455.980469 444.929688 L 455.875 445.355469 L 455.753906 445.78125 L 455.613281 446.195312 L 455.453125 446.609375 L 455.277344 447.011719 L 455.082031 447.40625 L 454.871094 447.792969 L 454.640625 448.167969 L 454.398438 448.535156 L 454.136719 448.890625 L 453.863281 449.234375 L 453.570312 449.566406 L 453.269531 449.886719 L 452.949219 450.1875 L 452.617188 450.480469 L 452.273438 450.753906 L 451.917969 451.015625 L 451.554688 451.261719 L 451.179688 451.488281 L 450.792969 451.703125 L 450.398438 451.894531 L 449.996094 452.074219 L 449.585938 452.234375 L 449.167969 452.375 L 448.746094 452.496094 L 448.316406 452.601562 L 447.886719 452.6875 L 447.449219 452.753906 L 447.011719 452.804688 L 446.574219 452.832031 L 446.132812 452.847656 L 445.691406 452.832031 L 445.253906 452.804688 L 444.816406 452.753906 L 444.382812 452.6875 L 443.949219 452.601562 L 443.523438 452.496094 L 443.101562 452.375 L 442.683594 452.234375 L 442.273438 452.074219 L 441.871094 451.894531 L 441.476562 451.703125 L 441.089844 451.488281 L 441.210938 451.671875 L 441.472656 452.027344 L 441.75 452.371094 L 442.039062 452.703125 L 442.34375 453.023438 L 442.660156 453.324219 L 442.992188 453.617188 L 443.332031 453.890625 L 443.6875 454.152344 L 444.054688 454.398438 L 444.429688 454.625 L 444.816406 454.839844 L 445.210938 455.03125 L 445.617188 455.210938 L 446.027344 455.371094 L 446.441406 455.511719 L 446.863281 455.636719 L 447.292969 455.738281 L 447.722656 455.824219 L 448.15625 455.890625 L 448.597656 455.941406 L 449.035156 455.96875 L 449.476562 455.980469 L 449.914062 455.96875 L 450.355469 455.941406 L 450.792969 455.890625 L 451.226562 455.824219 L 451.660156 455.738281 L 452.085938 455.636719 L 452.507812 455.511719 L 452.925781 455.371094 L 453.335938 455.210938 L 453.738281 455.03125 L 454.132812 454.839844 L 454.519531 454.625 L 454.894531 454.398438 L 455.261719 454.152344 L 455.617188 453.890625 L 455.960938 453.617188 L 456.289062 453.324219 L 456.609375 453.023438 L 456.914062 452.703125 L 457.203125 452.371094 L 457.480469 452.027344 L 457.738281 451.671875 L 457.984375 451.304688 L 458.210938 450.929688 L 458.421875 450.542969 L 458.617188 450.148438 L 458.792969 449.746094 L 458.953125 449.332031 L 459.097656 448.917969 L 459.21875 448.496094 L 459.324219 448.066406 L 459.410156 447.632812 L 459.476562 447.195312 L 459.523438 446.757812 L 459.554688 446.320312 L 459.566406 445.878906 L 459.554688 445.4375 L 459.523438 445 L 459.476562 444.5625 L 459.410156 444.125 L 459.324219 443.695312 L 459.21875 443.265625 L 459.097656 442.84375 L 458.953125 442.425781 L 458.792969 442.015625 L 458.617188 441.609375 L 458.421875 441.214844 L 458.210938 440.832031 L 457.984375 440.453125 L 457.738281 440.085938 L 457.480469 439.730469 L 457.203125 439.386719 L 456.914062 439.054688 L 456.609375 438.738281 L 456.289062 438.433594 L 455.960938 438.144531 L 455.617188 437.867188 L 455.261719 437.605469 L 454.894531 437.363281 Z M 454.519531 437.132812 " fill-opacity="1" fill-rule="nonzero"/></svg>